<svg id="color" enable-background="new 0 0 24 24" height="512" viewBox="0 0 24 24" width="512" xmlns="http://www.w3.org/2000/svg"><path d="m21.25 0h-18.5c-1.517 0-2.75 1.233-2.75 2.75v18.5c0 1.517 1.233 2.75 2.75 2.75h18.5c1.517 0 2.75-1.233 2.75-2.75v-18.5c0-1.517-1.233-2.75-2.75-2.75z" fill="#00bcd4"/><path d="m13.25 19h-2.5c-.689 0-1.25-.561-1.25-1.25v-5.75h-2.75c-.659 0-.998-.792-.542-1.268l5.25-5.5c.283-.296.802-.296 1.085 0l5.25 5.5c.455.476.116 1.268-.543 1.268h-2.75v5.75c0 .689-.561 1.25-1.25 1.25z" fill="#fff"/><path d="m12 0h-9.25c-1.517 0-2.75 1.233-2.75 2.75v18.5c0 1.517 1.233 2.75 2.75 2.75h9.25v-5h-1.25c-.689 0-1.25-.561-1.25-1.25v-5.75h-2.75c-.659 0-.998-.792-.542-1.268l5.25-5.5c.141-.148.342-.222.542-.222z" fill="#00a4b9"/><path d="m12 5.01c-.2 0-.401.074-.542.222l-5.25 5.5c-.456.476-.117 1.268.542 1.268h2.75v5.75c0 .689.561 1.25 1.25 1.25h1.25z" fill="#dedede"/></svg>